<?xml version="1.0" standalone="no"?>
<!DOCTYPE svg PUBLIC "-//W3C//DTD SVG 20010904//EN"
 "http://www.w3.org/TR/2001/REC-SVG-20010904/DTD/svg10.dtd">
<svg version="1.0" xmlns="http://www.w3.org/2000/svg"
 width="700.000000pt" height="700.000000pt" viewBox="0 0 700.000000 700.000000"
 preserveAspectRatio="xMidYMid meet">
<metadata>
Created by potrace 1.14, written by Peter Selinger 2001-2017
</metadata>
<g transform="translate(0.000000,700.000000) scale(0.100000,-0.100000)"
fill="#000000" stroke="none">
<path d="M3280 6994 c-19 -2 -84 -9 -145 -14 -410 -40 -846 -169 -1225 -362
-343 -176 -628 -387 -908 -672 -561 -572 -883 -1252 -984 -2081 -16 -133 -16
-590 0 -730 74 -625 284 -1178 634 -1669 211 -295 519 -603 813 -813 491 -351
1038 -559 1670 -635 135 -16 590 -16 735 1 705 80 1348 354 1880 802 134 113
345 325 452 455 433 526 696 1153 780 1859 16 139 16 595 0 730 -103 852 -447
1557 -1043 2141 -555 542 -1249 874 -2029 970 -117 15 -553 27 -630 18z m1311
-2154 c121 -38 212 -129 250 -252 19 -61 20 -86 17 -335 -3 -267 -3 -268 -30
-326 -56 -120 -169 -205 -299 -226 -87 -15 -1970 -15 -2058 -1 -129 21 -243
108 -299 228 -27 57 -27 58 -30 325 -3 249 -2 274 17 335 38 121 128 213 246
251 58 19 98 20 1091 20 1006 1 1034 0 1095 -19z m-62 -1541 c130 -21 243
-106 299 -226 27 -58 27 -59 30 -326 3 -249 2 -274 -17 -335 -38 -123 -129
-214 -250 -252 -61 -19 -90 -20 -1091 -20 -1001 0 -1030 1 -1091 20 -121 38
-212 129 -250 252 -19 61 -20 86 -17 335 3 267 3 268 30 325 54 115 171 207
290 227 78 13 1988 13 2067 0z"/>
</g>
</svg>
