<svg xmlns="http://www.w3.org/2000/svg" viewBox="0 0 512 512"><linearGradient id="a" gradientUnits="userSpaceOnUse" x1="0" y1="258" x2="512" y2="258" gradientTransform="matrix(1 0 0 -1 0 514)"><stop offset="0" stop-color="#00f2fe"/><stop offset=".021" stop-color="#03effe"/><stop offset=".293" stop-color="#24d2fe"/><stop offset=".554" stop-color="#3cbdfe"/><stop offset=".796" stop-color="#4ab0fe"/><stop offset="1" stop-color="#4facfe"/></linearGradient><path d="M438 148H74c-40.804 0-74-33.196-74-74S33.196 0 74 0h364c40.804 0 74 33.196 74 74s-33.196 74-74 74zM74 40c-18.748 0-34 15.252-34 34s15.252 34 34 34h364c18.748 0 34-15.252 34-34s-15.252-34-34-34H74zm364 290H74c-40.804 0-74-33.196-74-74s33.196-74 74-74h364c40.804 0 74 33.196 74 74s-33.196 74-74 74zM74 222c-18.748 0-34 15.252-34 34s15.252 34 34 34h364c18.748 0 34-15.252 34-34s-15.252-34-34-34H74zm438 216c0-40.804-33.196-74-74-74H74c-40.804 0-74 33.196-74 74s33.196 74 74 74h264c11.046 0 20-8.954 20-20s-8.954-20-20-20H74c-18.748 0-34-15.252-34-34s15.252-34 34-34h364c18.748 0 34 15.252 34 34s-15.252 34-34 34c-11.046 0-20 8.954-20 20s8.954 20 20 20c40.804 0 74-33.196 74-74z" fill="url(#a)"/></svg>