<svg xmlns="http://www.w3.org/2000/svg" x="50" y="50" viewBox="0 0 512 512"><linearGradient id="a" gradientUnits="userSpaceOnUse" x1="0" y1="258" x2="512" y2="258" gradientTransform="matrix(1 0 0 -1 0 514)"><stop offset="0" stop-color="#00f2fe"/><stop offset=".021" stop-color="#03effe"/><stop offset=".293" stop-color="#24d2fe"/><stop offset=".554" stop-color="#3cbdfe"/><stop offset=".796" stop-color="#4ab0fe"/><stop offset="1" stop-color="#4facfe"/></linearGradient><path d="M307 472H60.693c-8.538 0-13.689-4.766-15.999-7.606-3.989-4.905-5.533-11.29-4.236-17.519 20.755-99.695 108.691-172.521 210.24-174.977a137.229 137.229 0 0010.656-.002c31.12.73 61.05 7.832 89.044 21.14 9.977 4.74 21.907.499 26.649-9.478 4.742-9.976.5-21.907-9.477-26.649a260.207 260.207 0 00-30.093-12.081C370.56 219.996 392 180.455 392 136 392 61.01 330.991 0 256 0S120 61.01 120 136c0 44.504 21.488 84.084 54.633 108.911-30.368 9.998-58.863 25.555-83.803 46.069-45.732 37.617-77.529 90.086-89.532 147.743-3.762 18.066.745 36.622 12.363 50.908C25.222 503.847 42.365 512 60.693 512H307c11.046 0 20-8.954 20-20s-8.954-20-20-20zM160 136c0-52.935 43.065-96 96-96s96 43.065 96 96c0 51.299-40.445 93.329-91.122 95.877a260.16 260.16 0 00-9.718.002C200.465 229.35 160 187.312 160 136zm352 281c0 11.046-8.954 20-20 20h-55v55c0 11.046-8.954 20-20 20s-20-8.954-20-20v-55h-55c-11.046 0-20-8.954-20-20s8.954-20 20-20h55v-55c0-11.046 8.954-20 20-20s20 8.954 20 20v55h55c11.046 0 20 8.954 20 20z" fill="url(#a)"/></svg>