<svg height="50" viewBox="0 0 512 512" width="50" xmlns="http://www.w3.org/2000/svg"><linearGradient id="a" gradientUnits="userSpaceOnUse" x1="-.001" x2="511.999" y1="256" y2="256"><stop offset="0" stop-color="#00f2fe"/><stop offset=".021" stop-color="#03effe"/><stop offset=".293" stop-color="#24d2fe"/><stop offset=".554" stop-color="#3cbdfe"/><stop offset=".796" stop-color="#4ab0fe"/><stop offset="1" stop-color="#4facfe"/></linearGradient><path d="M250.902 271.895c1.692.062 3.387.105 5.098.105 1.586 0 3.164-.035 4.738-.094 35.813.774 71.035 10.25 102.157 27.57 9.652 5.372 21.832 1.903 27.203-7.75 5.37-9.652 1.902-21.831-7.75-27.203a258.238 258.238 0 00-44.934-19.652C370.531 220.043 392 180.481 392 136 392 61.008 330.988 0 256 0c-74.992 0-136 61.008-136 136 0 44.508 21.492 84.094 54.645 108.918-30.372 9.996-58.872 25.547-83.817 46.062-45.73 37.618-77.527 90.086-89.531 147.743-3.762 18.066.746 36.62 12.363 50.91C25.22 503.848 42.363 512 60.691 512H217c11.043 0 20-8.953 20-20s-8.957-20-20-20H60.691c-8.539 0-13.687-4.766-16-7.605-3.988-4.907-5.53-11.29-4.234-17.52 20.77-99.762 108.809-172.617 210.445-174.98zM160 136c0-52.934 43.063-96 96-96 52.934 0 96 43.066 96 96 0 51.34-40.508 93.39-91.238 95.883a244.22 244.22 0 00-4.762-.051c-1.563 0-3.121.023-4.68.05C200.55 229.438 160 187.368 160 136zm352 235.828c.02 13.36-5.203 25.914-14.7 35.36l-37.198 36.992A19.93 19.93 0 01446 450a19.95 19.95 0 01-14.184-5.898c-7.789-7.832-7.753-20.493.079-28.282l24.933-24.797h-113.34c-22.328 0-40.488 18.164-40.488 40.489S320.941 472 343 472c11.043 0 20 8.953 20 20s-8.957 20-20 20c-21.512 0-41.668-8.398-56.75-23.652C271.254 473.184 263 453 263 431.512c0-44.383 36.105-80.489 80.488-80.489h111.504l-23.058-22.8c-7.852-7.77-7.926-20.434-.157-28.285 7.766-7.852 20.43-7.926 28.286-.157l37.14 36.727c9.524 9.418 14.777 21.96 14.797 35.32zm0 0" fill="url(#a)"/></svg>